<svg xmlns="http://www.w3.org/2000/svg" viewBox="0 0 1500 345"><defs><style>.cls-1,.cls-3{fill:#0197c8;}.cls-2{fill:none;stroke:#03b4d8;stroke-width:20px;}.cls-3{stroke:#0097c8;stroke-width:9px;}</style></defs><title>Ativo 1</title><g id="Camada_2" data-name="Camada 2"><g id="Camada_1-2" data-name="Camada 1"><path class="cls-1" d="M80.23,294.2q-28.94,0-46.47-16.37-17.25-16.38-17.24-44.95V123q0-35.52,15.7-53.55t49.24-18q29.25,0,47.1,14.43t17.85,41.62v41.07H93.78V113.28Q93.78,103,91,99.13t-9.55-3.89c-4.71,0-8,1.48-9.84,4.44q-2.48,4.44-2.47,13v119.6q0,9.44,3.08,13.87,3.08,4.17,9.23,4.17,12.32,0,12.32-18v-43H147v44.95Q147,294.2,80.23,294.2ZM164.46,53.62h71.71q28.94,0,41.87,12.76Q291.27,79.15,291.27,108v10.54q0,34.14-27.09,40.79,16.63,3.89,23.4,18t6.77,37.46q0,38-12.62,57.72Q269.12,292,236.17,292H164.46Zm62.48,89.63q6.78,0,9.23-4.44,2.47-4.73,2.47-13V101.9q0-11.66-11.39-11.65H216.17v53ZM221.4,250.08q20.63,0,20.62-17.76V202.63q0-10.81-3.69-16.37-3.39-5.55-12.31-5.55h-9.85V249.8ZM374.54,294.2q-36,0-52-16.09t-16-51.89V202.91h52V232.6q0,17.76,12.62,17.76,7.08,0,9.85-3.61,2.78-3.88,2.77-12.76,0-11.66-3.08-19.15a37.69,37.69,0,0,0-8-12.77q-4.62-5.26-16.93-16.09L333,165.45q-26.46-23.31-26.47-51.62,0-30.51,15.39-46.34Q337.61,51.4,367.46,51.4q35.7,0,51.4,17.2,15.69,16.94,15.7,53.28H380.69l-.31-16.37A9.59,9.59,0,0,0,377.31,98q-2.78-2.77-8-2.78-6.15,0-9.23,3.06a11.18,11.18,0,0,0-3.08,8.32q0,11.66,14.78,24.14l30.78,26.64a157.29,157.29,0,0,1,17.85,18,65.78,65.78,0,0,1,11.39,20q4.31,11.37,4.31,27.19,0,35.23-14.47,53.55Q407.47,294.21,374.54,294.2Z"/><path class="cls-2" d="M0,10H1500"/><line class="cls-2" x1="0.11" y1="335" x2="1499.42" y2="335"/><path class="cls-3" d="M505.22,200.9a38,38,0,0,1-19.12-4.85,35.34,35.34,0,0,1-13.32-13.4,39.17,39.17,0,0,1-4.78-19.3,38.63,38.63,0,0,1,4.78-19.2,35.1,35.1,0,0,1,13.42-13.5A40.27,40.27,0,0,1,520,128.54a30.46,30.46,0,0,1,10.65,7.2,1.2,1.2,0,0,1,0,1.61l-3.33,3.45a1,1,0,0,1-1.38,0q-8.18-8.06-20.36-8.05a30.08,30.08,0,0,0-15.35,4,29.08,29.08,0,0,0-10.88,11,33.42,33.42,0,0,0,0,31.22,29.08,29.08,0,0,0,10.88,11,30.08,30.08,0,0,0,15.35,4q12.29,0,20.36-8.14a1,1,0,0,1,1.39,0l3.32,3.45a1.18,1.18,0,0,1,0,1.6,31.4,31.4,0,0,1-10.75,7.31A38.27,38.27,0,0,1,505.22,200.9ZM546.89,122h5.18a1.07,1.07,0,0,1,1,1.11v76.05a1.07,1.07,0,0,1-1,1.11h-5.18a1.07,1.07,0,0,1-1-1.11v-76A1.07,1.07,0,0,1,546.89,122Zm74.49,23.9v53.26a1.07,1.07,0,0,1-1,1.11h-4.88a1.06,1.06,0,0,1-1-1.11v-5.61a1,1,0,0,0-1.79-.71,20.35,20.35,0,0,1-6,5.21,23.21,23.21,0,0,1-11.39,2.75q-10.49,0-16.58-6t-6-17.82V145.9a1.07,1.07,0,0,1,1-1.12h5.18a1.07,1.07,0,0,1,1,1.12v30.32q0,8.76,4.17,13.29t11.9,4.54q8.44,0,13.32-5.28t4.88-14.87v-28a1.07,1.07,0,0,1,1-1.12h5.18A1.07,1.07,0,0,1,621.38,145.9Zm47.78-1.54A26.41,26.41,0,0,1,682.79,148a24.48,24.48,0,0,1,9.56,9.91,32.81,32.81,0,0,1,0,29.33,25.21,25.21,0,0,1-9.56,10,26.41,26.41,0,0,1-13.63,3.59,24.75,24.75,0,0,1-12.1-3A21.92,21.92,0,0,1,650.3,192a1,1,0,0,0-1.78.72v6.47a1.07,1.07,0,0,1-1,1.11h-4.88a1.07,1.07,0,0,1-1-1.11v-76a1.07,1.07,0,0,1,1-1.11h5.19a1.06,1.06,0,0,1,1,1.11v29a1,1,0,0,0,1.77.74,21.64,21.64,0,0,1,6.78-5.63A24.42,24.42,0,0,1,669.16,144.36Zm-.51,49.79a20,20,0,0,0,10.17-2.64,18.61,18.61,0,0,0,7.12-7.7,25.35,25.35,0,0,0,0-22.57,18,18,0,0,0-7.12-7.59,19.39,19.39,0,0,0-10.17-2.75,19.59,19.59,0,0,0-10.27,2.75,18.85,18.85,0,0,0-7.11,7.59,26.25,26.25,0,0,0,0,22.57,19.55,19.55,0,0,0,7.11,7.7A20.19,20.19,0,0,0,668.65,194.15Zm87.48-19.3H713.48a1.08,1.08,0,0,0-1,1.28,20,20,0,0,0,6.28,12.75q5.81,5.26,14.64,5.27a23,23,0,0,0,9.16-1.79,20.56,20.56,0,0,0,6.47-4.65,1,1,0,0,1,1.47,0l2.71,3.23a1.18,1.18,0,0,1,0,1.51,22.94,22.94,0,0,1-8.31,6,29,29,0,0,1-11.7,2.32,29.46,29.46,0,0,1-14.64-3.59,26.25,26.25,0,0,1-9.87-10.13,29.58,29.58,0,0,1-3.56-14.55A31,31,0,0,1,708.49,158a25.06,25.06,0,0,1,22.78-13.61A24.73,24.73,0,0,1,753.84,158a30.58,30.58,0,0,1,3.36,14.56l-.05,1.26A1.07,1.07,0,0,1,756.13,174.85Zm-24.86-24a17.91,17.91,0,0,0-13,5.17,19.91,19.91,0,0,0-5.76,12,1.08,1.08,0,0,0,1,1.25h35.64a1.08,1.08,0,0,0,1-1.25,19.75,19.75,0,0,0-5.86-12A17.68,17.68,0,0,0,731.27,150.8Zm105.64,12.09a1.14,1.14,0,0,0,.18,2,17.3,17.3,0,0,1,8.09,5.56q3.86,4.64,3.86,12,0,9.48-6.81,14.66t-19.94,5.06H790.57a1.07,1.07,0,0,1-1-1.11V129.49a1.07,1.07,0,0,1,1-1.11h29.69q11.9,0,18.41,5t6.61,14a18.12,18.12,0,0,1-2.95,10.44A16.69,16.69,0,0,1,836.91,162.89Zm-39.84-27V160.5a1.07,1.07,0,0,0,1,1.11h21.66c5.77,0,10.2-1.13,13.32-3.38s4.68-5.66,4.68-10-1.56-7.66-4.68-9.91-7.55-3.48-13.32-3.48H798.09A1.07,1.07,0,0,0,797.07,135.93Zm25.12,59.86q9.57,0,14.44-3.38t4.88-10.55q0-13.81-19.32-13.82h-24.1a1.07,1.07,0,0,0-1,1.12v25.52a1.07,1.07,0,0,0,1,1.11Zm49.42-42.08a1,1,0,0,0,1.8.69,17.49,17.49,0,0,1,5.72-5.24,24.57,24.57,0,0,1,11.47-2.83,1.07,1.07,0,0,1,1,1.12v5a1.06,1.06,0,0,1-1.07,1.11l-.62,0h-.08q-8.42,0-13.18,5.38T871.91,174v27.16a1.07,1.07,0,0,1-1,1.11h-5.18a1.07,1.07,0,0,1-1-1.11V147.85a1.07,1.07,0,0,1,1-1.11h4.88a1.07,1.07,0,0,1,1,1.11Zm51.71-7.4q10.48,0,16.07,5.49t5.59,16v33.28a1.06,1.06,0,0,1-1,1.11h-4.88a1.07,1.07,0,0,1-1-1.11v-4.26a1,1,0,0,0-1.77-.74,17.33,17.33,0,0,1-5.45,4.21,24,24,0,0,1-11.19,2.43q-13.6,0-18.75-10.24a1.21,1.21,0,0,1-.11-.32q-2.46-11.06,4.22-17,5-4.33,15.76-4.33h16a1.06,1.06,0,0,0,1-1.11v-2.26q0-7.17-3.86-10.87t-11.29-3.8a26.94,26.94,0,0,0-9.76,1.8,24.19,24.19,0,0,0-7.15,4,1,1,0,0,1-1.49-.27l-2.15-3.7a1.17,1.17,0,0,1,.24-1.48,28.11,28.11,0,0,1,9-4.86A35.82,35.82,0,0,1,923.32,146.31Zm-2.54,50.53A18.78,18.78,0,0,0,931.26,194a17.36,17.36,0,0,0,6.41-8.21,1.27,1.27,0,0,0,.09-.47v-7.72a1.06,1.06,0,0,0-1-1.11H921q-13.72,0-13.72,9.92a9.33,9.33,0,0,0,3.56,7.7Q914.38,196.85,920.78,196.84Zm58.15,5.91a41,41,0,0,1-12.5-1.9,28.65,28.65,0,0,1-8.53-4.35,1.17,1.17,0,0,1-.26-1.46l2.22-4a1,1,0,0,1,1.46-.34,28.56,28.56,0,0,0,7.55,3.85,33.19,33.19,0,0,0,10.57,1.69q7.32,0,10.78-2.32a7.74,7.74,0,0,0,3.56-6.75,6,6,0,0,0-1.93-4.75,12,12,0,0,0-4.88-2.64,60.1,60.1,0,0,0-7.83-1.79,96.49,96.49,0,0,1-10.48-2.53,16.2,16.2,0,0,1-6.81-4.54q-2.75-3.16-2.75-8.75a13.92,13.92,0,0,1,5.6-11.4q5.58-4.43,15.56-4.43a37.93,37.93,0,0,1,10.37,1.48,28.72,28.72,0,0,1,7.68,3.13,1.15,1.15,0,0,1,.36,1.51l-2.13,4.07a1,1,0,0,1-1.41.38,26.63,26.63,0,0,0-14.87-4.13q-6.93,0-10.48,2.53a7.88,7.88,0,0,0-3.46,6.65,6.77,6.77,0,0,0,1.94,5.06,13,13,0,0,0,5,2.85c2,.56,4.68,1.16,8.13,1.79a90,90,0,0,1,10.27,2.53,15.06,15.06,0,0,1,6.61,4.33c1.84,2,2.75,4.85,2.75,8.44a13.67,13.67,0,0,1-5.9,11.6Q989.31,202.75,978.93,202.75Zm36.44-56h5.18a1.07,1.07,0,0,1,1,1.11v53.26a1.07,1.07,0,0,1-1,1.11h-5.18a1.07,1.07,0,0,1-1-1.11V147.85A1.06,1.06,0,0,1,1015.37,146.74Zm2.64-12.13a5,5,0,0,1-3.76-1.59,5.25,5.25,0,0,1-1.53-3.79,5.17,5.17,0,0,1,1.53-3.7,5.26,5.26,0,0,1,7.52,0,4.81,4.81,0,0,1,1.53,3.59,5.38,5.38,0,0,1-1.53,3.9A5,5,0,0,1,1018,134.61ZM1042.68,124h5.18a1.07,1.07,0,0,1,1,1.11v76.05a1.07,1.07,0,0,1-1,1.11h-5.18a1.07,1.07,0,0,1-1-1.11V125.06A1.07,1.07,0,0,1,1042.68,124Zm64.71,77.69a44.69,44.69,0,0,1-15.26-2.64,28.5,28.5,0,0,1-10.62-6.37,1.18,1.18,0,0,1-.19-1.34l2-4a1,1,0,0,1,1.53-.34,29.51,29.51,0,0,0,9.35,5.64,37,37,0,0,0,13.22,2.43q9.55,0,14.34-3.59a11.5,11.5,0,0,0,4.78-9.49,9.55,9.55,0,0,0-2.65-7.07,16.27,16.27,0,0,0-6.3-4,90.36,90.36,0,0,0-10.48-3.16,118,118,0,0,1-12.81-4,22,22,0,0,1-8.24-6q-3.35-4-3.35-10.86a18.74,18.74,0,0,1,2.84-10.13,19.61,19.61,0,0,1,8.75-7.38q5.89-2.75,14.64-2.74a39.86,39.86,0,0,1,11.9,1.79,33.36,33.36,0,0,1,9.42,4.23,1.16,1.16,0,0,1,.39,1.4l-1.72,4.2a1,1,0,0,1-1.44.49,36.45,36.45,0,0,0-18.55-5.47c-6.23,0-11,1.27-14.13,3.8a11.66,11.66,0,0,0-4.68,9.6,10.15,10.15,0,0,0,2.54,7.17,18.2,18.2,0,0,0,6.51,4.11q4,1.38,10.58,3.06a95.32,95.32,0,0,1,12.61,4,20.08,20.08,0,0,1,8.23,5.91q3.36,3.9,3.36,10.65a18.7,18.7,0,0,1-3,10.24,19.71,19.71,0,0,1-8.85,7.27A36.56,36.56,0,0,1,1107.39,201.64Zm87-26h-42.65a1.09,1.09,0,0,0-1,1.28,20,20,0,0,0,6.29,12.75q5.79,5.26,14.64,5.27a23,23,0,0,0,9.15-1.79,20.49,20.49,0,0,0,6.47-4.65,1,1,0,0,1,1.48,0l2.71,3.24a1.19,1.19,0,0,1,0,1.51,23.18,23.18,0,0,1-8.32,6,28.87,28.87,0,0,1-11.69,2.32,29.5,29.5,0,0,1-14.65-3.59,26.23,26.23,0,0,1-9.86-10.13,29.58,29.58,0,0,1-3.56-14.55,31,31,0,0,1,3.36-14.56,25,25,0,0,1,22.77-13.61,24.73,24.73,0,0,1,22.58,13.61,30.58,30.58,0,0,1,3.36,14.56l-.06,1.26A1.07,1.07,0,0,1,1194.41,175.59Zm-24.87-24.05a17.9,17.9,0,0,0-13,5.16,20,20,0,0,0-5.76,12.05,1.08,1.08,0,0,0,1,1.25h35.63a1.08,1.08,0,0,0,1-1.25,19.7,19.7,0,0,0-5.86-12.05A17.7,17.7,0,0,0,1169.54,151.54Zm89.14-6a1.07,1.07,0,0,1,1,1.11v47.63q0,14.13-6.71,20.88T1233,222a42.82,42.82,0,0,1-14.13-2.32,28.77,28.77,0,0,1-10.07-5.57,1.17,1.17,0,0,1-.17-1.49l2.49-3.89a1,1,0,0,1,1.47-.22,27.85,27.85,0,0,0,8.51,4.84,34.33,34.33,0,0,0,11.7,2q10.17,0,15-4.95t4.78-15.19v-3.9a1,1,0,0,0-1.76-.76,21.83,21.83,0,0,1-7.09,5.61,26.16,26.16,0,0,1-12,2.74,28.27,28.27,0,0,1-13.73-3.38,25.73,25.73,0,0,1-9.66-9.6,28.41,28.41,0,0,1-3.46-14,27.86,27.86,0,0,1,3.46-13.92,25,25,0,0,1,9.66-9.49,27.91,27.91,0,0,1,13.73-3.38,26.29,26.29,0,0,1,12.3,2.85,22.27,22.27,0,0,1,7.09,5.76,1,1,0,0,0,1.76-.75v-6.33a1.07,1.07,0,0,1,1-1.11Zm-26.34,46.73a21.63,21.63,0,0,0,10.48-2.53,18.38,18.38,0,0,0,7.22-7.28,20.94,20.94,0,0,0,2.64-10.55,20.4,20.4,0,0,0-2.64-10.44,17.74,17.74,0,0,0-7.22-7.17,20.6,20.6,0,0,0-10.48-2.64,21.73,21.73,0,0,0-10.47,2.53,18.46,18.46,0,0,0-7.22,7.18,23.08,23.08,0,0,0,0,21.09,19.19,19.19,0,0,0,7.22,7.28A21.62,21.62,0,0,0,1232.34,192.25Zm95.75-45.62V199.9a1.07,1.07,0,0,1-1,1.11h-4.88a1.07,1.07,0,0,1-1-1.11v-5.61a1,1,0,0,0-1.78-.71,20.54,20.54,0,0,1-6.05,5.21,23.19,23.19,0,0,1-11.39,2.75q-10.47,0-16.57-6t-6-17.82V146.63a1.07,1.07,0,0,1,1-1.11h5.18a1.07,1.07,0,0,1,1,1.11V177q0,8.74,4.17,13.29t11.9,4.53q8.43,0,13.32-5.27t4.88-14.87v-28a1.07,1.07,0,0,1,1-1.11h5.18A1.07,1.07,0,0,1,1328.09,146.63Zm27.14,5.87a1,1,0,0,0,1.8.69,17.49,17.49,0,0,1,5.72-5.24,24.57,24.57,0,0,1,11.47-2.83,1.06,1.06,0,0,1,1,1.11v5a1.06,1.06,0,0,1-1.07,1.11l-.62,0h-.08q-8.41,0-13.18,5.38t-4.78,15.09V199.9a1.07,1.07,0,0,1-1,1.11h-5.18a1.07,1.07,0,0,1-1-1.11V146.63a1.07,1.07,0,0,1,1-1.11h4.88a1.07,1.07,0,0,1,1,1.11Zm54.47,49a27.32,27.32,0,0,1-13.93-3.59,26.4,26.4,0,0,1-9.76-10.13,31.53,31.53,0,0,1,0-29.11,25.63,25.63,0,0,1,9.76-10,28.82,28.82,0,0,1,27.86,0,24.92,24.92,0,0,1,9.66,10,31.53,31.53,0,0,1,0,29.11,25.66,25.66,0,0,1-9.66,10.13A27.32,27.32,0,0,1,1409.7,201.54Zm0-6.65a19.62,19.62,0,0,0,10.17-2.64,18.68,18.68,0,0,0,7.12-7.7,26.34,26.34,0,0,0,0-22.57,18.06,18.06,0,0,0-7.12-7.6,19.12,19.12,0,0,0-10.17-2.74,19.65,19.65,0,0,0-10.27,2.74,18.9,18.9,0,0,0-7.12,7.6,26.34,26.34,0,0,0,0,22.57,19.57,19.57,0,0,0,7.12,7.7A20.16,20.16,0,0,0,1409.7,194.89Zm56.23,6.65a41.4,41.4,0,0,1-12.51-1.9,28.48,28.48,0,0,1-8.52-4.36,1.16,1.16,0,0,1-.26-1.46l2.22-4a1,1,0,0,1,1.46-.33,28.86,28.86,0,0,0,7.55,3.85,33.42,33.42,0,0,0,10.57,1.69q7.32,0,10.78-2.32a7.74,7.74,0,0,0,3.56-6.76,6,6,0,0,0-1.93-4.74,11.79,11.79,0,0,0-4.88-2.64,60.49,60.49,0,0,0-7.83-1.79,98.3,98.3,0,0,1-10.48-2.53,16.14,16.14,0,0,1-6.81-4.54q-2.74-3.17-2.75-8.76a13.87,13.87,0,0,1,5.6-11.39q5.58-4.42,15.55-4.43a37.57,37.57,0,0,1,10.38,1.48,28.4,28.4,0,0,1,7.68,3.13,1.15,1.15,0,0,1,.36,1.51l-2.13,4.07a1,1,0,0,1-1.41.38,26.59,26.59,0,0,0-14.88-4.13q-6.91,0-10.47,2.53a7.85,7.85,0,0,0-3.46,6.64,6.76,6.76,0,0,0,1.94,5.07,13,13,0,0,0,5,2.84c2,.57,4.68,1.16,8.13,1.8a91.08,91.08,0,0,1,10.27,2.53,15,15,0,0,1,6.61,4.32c1.83,2,2.75,4.86,2.75,8.44a13.68,13.68,0,0,1-5.9,11.61Q1476.31,201.54,1465.93,201.54Z"/></g></g></svg>