<svg width="967" height="967" viewBox="0 0 967 967" fill="none" xmlns="http://www.w3.org/2000/svg">
<path d="M238.049 358.477L326.135 315.97V406.856L376.184 386.794V239.066L340.616 257.386L188 331.032L188.062 331.139L188 331.168V634.831L188.805 634.406L188 635.917L376.184 726.478L376.184 570.086L326.135 550.937L326.736 638.563L238.049 602.732V358.477Z" fill="#FEFFFE"/>
<path fill-rule="evenodd" clip-rule="evenodd" d="M590.394 499.566L590.905 499.1L550.616 462.396L590.905 425.693L590.248 425.094H590.394V239.978H590.39L590.788 239.289L483.527 188L483.426 188.174L483.327 188.001L386.194 234.216L386.325 234.445L386.194 234.507V730.8L385.672 731.707L386.194 731.957V732.405L436.243 756.114V755.888L482.05 777.792L482.11 777.688L482.288 778L589.77 727.152L589.645 726.934H590.394V499.566ZM436.243 261.842L483.37 239.419L540.345 266.663V407.273L498.761 445.156H436.243V261.842ZM540.345 517.52L510.961 490.751H436.243V704.394L482.75 726.633L540.345 699.229V517.52Z" fill="#FEFFFE"/>
<path d="M650.453 268.247L600.404 244.082L600.404 448.804H600.877L600.404 450.09L727.528 488.882V607.744L653.098 643.66L653.456 514.461L603.407 498.958V718.726L652.955 695.473L652.955 695.417L777.97 635L777.577 634.323V456.099H776.373L776.504 455.742L650.453 417.278V319.759L727.528 356.379V406.856L777.577 420.535V329.675L778 328.936L650.453 268.335V268.247Z" fill="#FEFFFE"/>
</svg>
