<svg width="1557" height="967" viewBox="0 0 1557 967" fill="none" xmlns="http://www.w3.org/2000/svg">
<path d="M241.049 358.477L329.135 315.97V406.856L379.184 386.794V239.067L343.616 257.386L191 331.032L191.062 331.139L191 331.169V634.832L191.805 634.406L191 635.917L379.184 726.478L379.184 570.087L329.135 550.937L329.736 638.563L241.049 602.732V358.477Z" fill="#0526CA"/>
<path fill-rule="evenodd" clip-rule="evenodd" d="M593.394 499.566L593.905 499.1L553.616 462.397L593.905 425.693L593.248 425.094H593.394V239.978H593.391L593.788 239.289L486.527 188L486.427 188.174L486.327 188.001L389.194 234.216L389.325 234.445L389.194 234.507V730.8L388.672 731.707L389.194 731.957V732.405L439.243 756.114V755.889L485.05 777.792L485.111 777.688L485.288 778L592.77 727.152L592.645 726.934H593.394V499.566ZM439.243 261.842L486.37 239.419L543.345 266.663V407.273L501.761 445.156H439.243V261.842ZM543.345 517.52L513.961 490.751H439.243V704.394L485.75 726.633L543.345 699.229V517.52Z" fill="#0526CA"/>
<path d="M653.453 268.247L603.404 244.082L603.404 448.804H603.877L603.404 450.091L730.528 488.882V607.744L656.099 643.66L656.456 514.461L606.407 498.958V718.726L655.955 695.473L655.955 695.417L780.971 635L780.577 634.323V456.099H779.373L779.505 455.742L653.453 417.278V319.759L730.528 356.379V406.856L780.577 420.535V329.675L781 328.936L653.453 268.335V268.247Z" fill="#0526CA"/>
<path d="M877.598 392C861.647 392 853.672 384.025 853.672 368.074V312.703C853.672 296.753 861.647 288.777 877.598 288.777H898.789C914.74 288.777 922.715 296.753 922.715 312.703V320.223L909.727 326.375H909.043V312.703C909.043 304.956 905.625 301.082 898.789 301.082H877.598C870.762 301.082 867.344 304.956 867.344 312.703V368.074C867.344 375.822 870.762 379.695 877.598 379.695H898.789C905.625 379.695 909.043 375.822 909.043 368.074V360.555L922.031 354.402H922.715V368.074C922.715 384.025 914.74 392 898.789 392H877.598ZM950.059 394.734V292.195L963.047 286.043H963.73V388.582L950.742 394.734H950.059ZM1008.16 392C994.492 392 987.656 385.164 987.656 371.492V320.223L1000.64 314.07H1001.33V371.492C1001.33 376.961 1003.61 379.695 1008.16 379.695H1023.89C1028.44 379.695 1030.72 376.961 1030.72 371.492V320.223L1043.71 314.07H1044.39V371.492C1044.39 385.164 1037.56 392 1023.89 392H1008.16ZM1088.83 379.695H1104.55C1109.11 379.695 1111.39 376.961 1111.39 371.492V337.313C1111.39 331.844 1109.11 329.109 1104.55 329.109H1088.83C1084.27 329.109 1081.99 331.844 1081.99 337.313V371.492C1081.99 376.961 1084.27 379.695 1088.83 379.695ZM1088.83 392C1075.16 392 1068.32 385.164 1068.32 371.492V292.195L1081.31 286.043H1081.99V318.924C1083.82 317.511 1086.09 316.805 1088.83 316.805H1104.55C1118.22 316.805 1125.06 323.641 1125.06 337.313V371.492C1125.06 385.164 1118.22 392 1104.55 392H1088.83ZM1166.07 392C1152.4 392 1145.57 385.164 1145.57 371.492V337.313C1145.57 323.641 1152.4 316.805 1166.07 316.805H1181.8C1195.47 316.805 1202.3 323.641 1202.3 337.313V340.936L1159.44 374.09C1160.08 377.827 1162.29 379.695 1166.07 379.695H1181.8C1186.35 379.695 1188.63 376.961 1188.63 371.492V367.869L1201.62 361.717H1202.3V371.492C1202.3 385.164 1195.47 392 1181.8 392H1166.07ZM1159.24 359.803L1188.56 336.15C1188.29 331.456 1186.04 329.109 1181.8 329.109H1166.07C1161.52 329.109 1159.24 331.844 1159.24 337.313V359.803ZM853.672 561V461.195L860.918 457.777H894.688C908.359 457.777 915.195 464.613 915.195 478.285V489.496C915.195 494.509 913.874 498.497 911.23 501.459C917.975 505.287 921.348 512.009 921.348 521.625V537.074C921.348 553.025 913.372 561 897.422 561H853.672ZM867.344 548.695H897.422C904.258 548.695 907.676 544.822 907.676 537.074V521.625C907.676 513.878 904.258 510.004 897.422 510.004H867.344V548.695ZM867.344 497.699H894.688C899.245 497.699 901.523 494.965 901.523 489.496V478.285C901.523 472.816 899.245 470.082 894.688 470.082H867.344V497.699ZM943.906 563.734V506.313C943.906 492.641 950.742 485.805 964.414 485.805H981.504V486.488L976.035 498.109H964.414C959.857 498.109 957.578 500.844 957.578 506.313V557.582L944.59 563.734H943.906ZM1010.21 548.695H1024.57C1029.13 548.695 1031.41 545.961 1031.41 540.492V531.127C1031.41 525.658 1029.13 522.924 1024.57 522.924H1010.21C1005.66 522.924 1003.38 525.658 1003.38 531.127V540.492C1003.38 545.961 1005.66 548.695 1010.21 548.695ZM1010.21 561C996.543 561 989.707 554.164 989.707 540.492V531.127C989.707 517.455 996.543 510.619 1010.21 510.619H1024.57C1026.94 510.619 1029.22 511.303 1031.41 512.67V506.313C1031.41 500.844 1029.13 498.109 1024.57 498.109H1000.1V497.426L1005.57 485.805H1024.57C1038.24 485.805 1045.08 492.641 1045.08 506.313V557.582L1032.09 563.734H1031.41V558.949C1029.67 560.316 1027.4 561 1024.57 561H1010.21ZM1084.04 561C1070.37 561 1063.54 554.164 1063.54 540.492V538.031L1076.52 531.879H1077.21V540.492C1077.21 545.961 1079.49 548.695 1084.04 548.695H1099.77C1104.32 548.695 1106.6 545.961 1106.6 540.492V535.092C1106.6 529.623 1104.32 526.889 1099.77 526.889H1086.91C1073.24 526.889 1066.41 520.03 1066.41 506.313C1066.41 492.641 1073.24 485.805 1086.91 485.805H1094.91C1108.58 485.805 1115.42 491.319 1115.42 502.348L1102.43 508.5H1101.75V506.313C1101.75 500.844 1099.47 498.109 1094.91 498.109H1086.91C1082.36 498.109 1080.08 500.844 1080.08 506.313C1080.08 511.827 1082.36 514.584 1086.91 514.584H1099.77C1113.44 514.584 1120.27 521.42 1120.27 535.092V540.492C1120.27 554.164 1113.44 561 1099.77 561H1084.04ZM1143.17 470.697C1141.58 469.057 1140.78 467.097 1140.78 464.818C1140.78 462.494 1141.58 460.512 1143.17 458.871C1144.77 457.231 1146.71 456.41 1148.98 456.41C1151.26 456.41 1153.2 457.231 1154.79 458.871C1156.39 460.512 1157.19 462.494 1157.19 464.818C1157.19 467.097 1156.39 469.057 1154.79 470.697C1153.2 472.338 1151.26 473.158 1148.98 473.158C1146.71 473.158 1144.77 472.338 1143.17 470.697ZM1142.15 563.734V489.223L1155.14 483.07H1155.82V557.582L1142.83 563.734H1142.15ZM1183.16 563.734V461.195L1196.15 455.043H1196.84V557.582L1183.85 563.734H1183.16ZM874.863 730C858.913 730 850.938 722.025 850.938 706.074V698.555L863.926 692.402H864.609V706.074C864.609 713.822 868.027 717.695 874.863 717.695H896.055C902.891 717.695 906.309 713.822 906.309 706.074V691.719C906.309 683.971 902.891 680.098 896.055 680.098H877.598C863.926 680.098 857.09 673.262 857.09 659.59V647.285C857.09 633.613 863.926 626.777 877.598 626.777H893.32C906.992 626.777 913.828 633.613 913.828 647.285V650.908L900.84 657.061H900.156V647.285C900.156 641.816 897.878 639.082 893.32 639.082H877.598C873.04 639.082 870.762 641.816 870.762 647.285V659.59C870.762 665.059 873.04 667.793 877.598 667.793H896.055C912.005 667.793 919.98 675.768 919.98 691.719V706.074C919.98 722.025 912.005 730 896.055 730H874.863ZM961.68 730C948.008 730 941.172 723.164 941.172 709.492V675.313C941.172 661.641 948.008 654.805 961.68 654.805H977.402C991.074 654.805 997.91 661.641 997.91 675.313V678.936L955.049 712.09C955.687 715.827 957.897 717.695 961.68 717.695H977.402C981.96 717.695 984.238 714.961 984.238 709.492V705.869L997.227 699.717H997.91V709.492C997.91 723.164 991.074 730 977.402 730H961.68ZM954.844 697.803L984.17 674.15C983.896 669.456 981.641 667.109 977.402 667.109H961.68C957.122 667.109 954.844 669.844 954.844 675.313V697.803ZM1038.93 730C1025.25 730 1018.42 723.164 1018.42 709.492V675.313C1018.42 661.641 1025.25 654.805 1038.93 654.805H1054.65C1068.32 654.805 1075.16 661.641 1075.16 675.313V737.52C1075.16 751.191 1068.32 758.027 1054.65 758.027H1025.53V757.344L1031 745.723H1054.65C1059.21 745.723 1061.48 742.988 1061.48 737.52V727.949C1059.57 729.316 1057.29 730 1054.65 730H1038.93ZM1038.93 717.695H1054.65C1059.21 717.695 1061.48 714.961 1061.48 709.492V675.313C1061.48 669.844 1059.21 667.109 1054.65 667.109H1038.93C1034.37 667.109 1032.09 669.844 1032.09 675.313V709.492C1032.09 714.961 1034.37 717.695 1038.93 717.695ZM1118.22 730C1104.55 730 1097.71 723.164 1097.71 709.492V658.223L1110.7 652.07H1111.39V709.492C1111.39 714.961 1113.67 717.695 1118.22 717.695H1133.95C1138.5 717.695 1140.78 714.961 1140.78 709.492V658.223L1153.77 652.07H1154.45V709.492C1154.45 723.164 1147.62 730 1133.95 730H1118.22ZM1174.96 732.734V675.313C1174.96 661.641 1181.8 654.805 1195.47 654.805H1212.56V655.488L1207.09 667.109H1195.47C1190.91 667.109 1188.63 669.844 1188.63 675.313V726.582L1175.64 732.734H1174.96ZM1244.69 717.695H1260.41C1264.97 717.695 1267.25 714.961 1267.25 709.492V675.313C1267.25 669.844 1264.97 667.109 1260.41 667.109H1244.69C1240.13 667.109 1237.85 669.844 1237.85 675.313V709.492C1237.85 714.961 1240.13 717.695 1244.69 717.695ZM1244.69 730C1231.02 730 1224.18 723.164 1224.18 709.492V675.313C1224.18 661.641 1231.02 654.805 1244.69 654.805H1260.41C1274.08 654.805 1280.92 661.641 1280.92 675.313V709.492C1280.92 723.164 1274.08 730 1260.41 730H1244.69ZM1319.88 730C1306.21 730 1299.38 723.164 1299.38 709.492V707.031L1312.36 700.879H1313.05V709.492C1313.05 714.961 1315.33 717.695 1319.88 717.695H1335.61C1340.16 717.695 1342.44 714.961 1342.44 709.492V704.092C1342.44 698.623 1340.16 695.889 1335.61 695.889H1322.75C1309.08 695.889 1302.25 689.03 1302.25 675.313C1302.25 661.641 1309.08 654.805 1322.75 654.805H1330.75C1344.42 654.805 1351.26 660.319 1351.26 671.348L1338.27 677.5H1337.59V675.313C1337.59 669.844 1335.31 667.109 1330.75 667.109H1322.75C1318.2 667.109 1315.92 669.844 1315.92 675.313C1315.92 680.827 1318.2 683.584 1322.75 683.584H1335.61C1349.28 683.584 1356.11 690.42 1356.11 704.092V709.492C1356.11 723.164 1349.28 730 1335.61 730H1319.88Z" fill="#0526CA"/>
</svg>
