<svg width="1093" height="641" viewBox="0 0 1093 641" fill="none" xmlns="http://www.w3.org/2000/svg">
<path d="M104.2 512.2C79.1333 512.2 59 504.333 43.8 488.6C28.8667 472.867 21.4 451.267 21.4 423.8V265.4C21.4 231.267 28.2 205.533 41.8 188.2C55.4 170.867 76.7333 162.2 105.8 162.2C131.133 162.2 151.533 169.133 167 183C182.467 196.867 190.2 216.867 190.2 243V302.2H121.8V251.4C121.8 241.533 120.6 234.733 118.2 231C115.8 227.267 111.667 225.4 105.8 225.4C99.6667 225.4 95.4 227.533 93 231.8C90.8667 236.067 89.8 242.333 89.8 250.6V423C89.8 432.067 91.1333 438.733 93.8 443C96.4667 447 100.467 449 105.8 449C116.467 449 121.8 440.333 121.8 423V361H191V425.8C191 483.4 162.067 512.2 104.2 512.2ZM213.653 165.4H306.853C331.92 165.4 350.053 171.533 361.253 183.8C372.72 196.067 378.453 216.067 378.453 243.8V259C378.453 291.8 366.72 311.4 343.253 317.8C357.653 321.533 367.786 330.2 373.653 343.8C379.52 357.4 382.453 375.4 382.453 397.8C382.453 434.333 376.986 462.067 366.053 481C355.12 499.667 335.386 509 306.853 509H213.653V165.4ZM294.853 294.6C300.72 294.6 304.72 292.467 306.853 288.2C308.986 283.667 310.053 277.4 310.053 269.4V235C310.053 223.8 305.12 218.2 295.253 218.2H280.853V294.6H294.853ZM287.653 448.6C305.52 448.6 314.453 440.067 314.453 423V380.2C314.453 369.8 312.853 361.933 309.653 356.6C306.72 351.267 301.386 348.6 293.653 348.6H280.853V448.2L287.653 448.6ZM486.659 512.2C455.459 512.2 432.926 504.467 419.059 489C405.193 473.533 398.259 448.6 398.259 414.2V380.6H465.859V423.4C465.859 440.467 471.326 449 482.259 449C488.393 449 492.659 447.267 495.059 443.8C497.459 440.067 498.659 433.933 498.659 425.4C498.659 414.2 497.326 405 494.659 397.8C491.993 390.333 488.526 384.2 484.259 379.4C480.259 374.333 472.926 366.6 462.259 356.2L432.659 326.6C409.726 304.2 398.259 279.4 398.259 252.2C398.259 222.867 404.926 200.6 418.259 185.4C431.859 169.933 451.593 162.2 477.459 162.2C508.393 162.2 530.659 170.467 544.259 187C557.859 203.267 564.659 228.867 564.659 263.8H494.659L494.259 240.2C494.259 235.667 492.926 232.067 490.259 229.4C487.859 226.733 484.393 225.4 479.859 225.4C474.526 225.4 470.526 226.867 467.859 229.8C465.193 232.733 463.859 236.733 463.859 241.8C463.859 253 470.259 264.6 483.059 276.6L523.059 315C532.393 324.067 540.126 332.733 546.259 341C552.393 349 557.326 358.6 561.059 369.8C564.793 380.733 566.659 393.8 566.659 409C566.659 442.867 560.393 468.6 547.859 486.2C535.593 503.533 515.193 512.2 486.659 512.2Z" fill="#0096C7"/>
<path d="M696.8 274.6C689.867 274.6 683.6 273.067 678 270C672.467 266.933 668.1 262.7 664.9 257.3C661.767 251.833 660.2 245.733 660.2 239C660.2 232.267 661.767 226.2 664.9 220.8C668.1 215.333 672.5 211.067 678.1 208C683.7 204.933 689.967 203.4 696.9 203.4C702.1 203.4 706.9 204.267 711.3 206C715.7 207.733 719.433 210.267 722.5 213.6L717.8 218.3C712.333 212.767 705.433 210 697.1 210C691.567 210 686.533 211.267 682 213.8C677.467 216.333 673.9 219.8 671.3 224.2C668.767 228.6 667.5 233.533 667.5 239C667.5 244.467 668.767 249.4 671.3 253.8C673.9 258.2 677.467 261.667 682 264.2C686.533 266.733 691.567 268 697.1 268C705.5 268 712.4 265.2 717.8 259.6L722.5 264.3C719.433 267.633 715.667 270.2 711.2 272C706.8 273.733 702 274.6 696.8 274.6ZM736.775 199.8H743.875V274H736.775V199.8ZM811.03 221.4V274H804.23V264.4C802.364 267.6 799.797 270.1 796.53 271.9C793.264 273.633 789.53 274.5 785.33 274.5C778.464 274.5 773.03 272.6 769.03 268.8C765.097 264.933 763.13 259.3 763.13 251.9V221.4H770.23V251.2C770.23 256.733 771.597 260.933 774.33 263.8C777.064 266.667 780.964 268.1 786.03 268.1C791.564 268.1 795.93 266.433 799.13 263.1C802.33 259.7 803.93 255 803.93 249V221.4H811.03ZM858.016 221C862.949 221 867.416 222.133 871.416 224.4C875.416 226.6 878.549 229.733 880.816 233.8C883.082 237.867 884.216 242.5 884.216 247.7C884.216 252.9 883.082 257.533 880.816 261.6C878.549 265.667 875.416 268.833 871.416 271.1C867.416 273.367 862.949 274.5 858.016 274.5C853.616 274.5 849.649 273.567 846.116 271.7C842.649 269.833 839.849 267.133 837.716 263.6V274H830.916V199.8H838.016V231.4C840.216 228 843.016 225.433 846.416 223.7C849.882 221.9 853.749 221 858.016 221ZM857.516 268.2C861.182 268.2 864.516 267.367 867.516 265.7C870.516 263.967 872.849 261.533 874.516 258.4C876.249 255.267 877.116 251.7 877.116 247.7C877.116 243.7 876.249 240.133 874.516 237C872.849 233.867 870.516 231.467 867.516 229.8C864.516 228.067 861.182 227.2 857.516 227.2C853.782 227.2 850.416 228.067 847.416 229.8C844.482 231.467 842.149 233.867 840.416 237C838.749 240.133 837.916 243.7 837.916 247.7C837.916 251.7 838.749 255.267 840.416 258.4C842.149 261.533 844.482 263.967 847.416 265.7C850.416 267.367 853.782 268.2 857.516 268.2ZM944.489 249.9H900.489C900.889 255.367 902.989 259.8 906.789 263.2C910.589 266.533 915.389 268.2 921.189 268.2C924.456 268.2 927.456 267.633 930.189 266.5C932.922 265.3 935.289 263.567 937.289 261.3L941.289 265.9C938.956 268.7 936.022 270.833 932.489 272.3C929.022 273.767 925.189 274.5 920.989 274.5C915.589 274.5 910.789 273.367 906.589 271.1C902.456 268.767 899.222 265.567 896.889 261.5C894.556 257.433 893.389 252.833 893.389 247.7C893.389 242.567 894.489 237.967 896.689 233.9C898.956 229.833 902.022 226.667 905.889 224.4C909.822 222.133 914.222 221 919.089 221C923.956 221 928.322 222.133 932.189 224.4C936.056 226.667 939.089 229.833 941.289 233.9C943.489 237.9 944.589 242.5 944.589 247.7L944.489 249.9ZM919.089 227.1C914.022 227.1 909.756 228.733 906.289 232C902.889 235.2 900.956 239.4 900.489 244.6H937.789C937.322 239.4 935.356 235.2 931.889 232C928.489 228.733 924.222 227.1 919.089 227.1ZM710.5 347.9C715.1 348.9 718.633 350.9 721.1 353.9C723.633 356.833 724.9 360.633 724.9 365.3C724.9 371.3 722.667 375.933 718.2 379.2C713.8 382.4 707.267 384 698.6 384H666.4V314H696.6C704.4 314 710.433 315.567 714.7 318.7C719.033 321.833 721.2 326.267 721.2 332C721.2 335.867 720.233 339.167 718.3 341.9C716.433 344.567 713.833 346.567 710.5 347.9ZM673.8 320.1V345.5H696.1C701.767 345.5 706.133 344.433 709.2 342.3C712.267 340.1 713.8 336.933 713.8 332.8C713.8 328.667 712.267 325.533 709.2 323.4C706.133 321.2 701.767 320.1 696.1 320.1H673.8ZM698.5 377.9C704.767 377.9 709.5 376.833 712.7 374.7C715.9 372.567 717.5 369.233 717.5 364.7C717.5 355.967 711.167 351.6 698.5 351.6H673.8V377.9H698.5ZM747.091 341.7C748.757 338.167 751.224 335.5 754.491 333.7C757.824 331.9 761.924 331 766.791 331V337.9L765.091 337.8C759.557 337.8 755.224 339.5 752.091 342.9C748.957 346.3 747.391 351.067 747.391 357.2V384H740.291V331.4H747.091V341.7ZM797.948 331C804.815 331 810.082 332.733 813.748 336.2C817.415 339.6 819.248 344.667 819.248 351.4V384H812.448V375.8C810.848 378.533 808.482 380.667 805.348 382.2C802.282 383.733 798.615 384.5 794.348 384.5C788.482 384.5 783.815 383.1 780.348 380.3C776.882 377.5 775.148 373.8 775.148 369.2C775.148 364.733 776.748 361.133 779.948 358.4C783.215 355.667 788.382 354.3 795.448 354.3H812.148V351.1C812.148 346.567 810.882 343.133 808.348 340.8C805.815 338.4 802.115 337.2 797.248 337.2C793.915 337.2 790.715 337.767 787.648 338.9C784.582 339.967 781.948 341.467 779.748 343.4L776.548 338.1C779.215 335.833 782.415 334.1 786.148 332.9C789.882 331.633 793.815 331 797.948 331ZM795.448 378.9C799.448 378.9 802.882 378 805.748 376.2C808.615 374.333 810.748 371.667 812.148 368.2V359.6H795.648C786.648 359.6 782.148 362.733 782.148 369C782.148 372.067 783.315 374.5 785.648 376.3C787.982 378.033 791.248 378.9 795.448 378.9ZM852.633 384.5C848.366 384.5 844.266 383.9 840.333 382.7C836.466 381.433 833.433 379.867 831.233 378L834.433 372.4C836.633 374.133 839.399 375.567 842.733 376.7C846.066 377.767 849.533 378.3 853.133 378.3C857.933 378.3 861.466 377.567 863.733 376.1C866.066 374.567 867.233 372.433 867.233 369.7C867.233 367.767 866.599 366.267 865.333 365.2C864.066 364.067 862.466 363.233 860.533 362.7C858.599 362.1 856.033 361.533 852.833 361C848.566 360.2 845.133 359.4 842.533 358.6C839.933 357.733 837.699 356.3 835.833 354.3C834.033 352.3 833.133 349.533 833.133 346C833.133 341.6 834.966 338 838.633 335.2C842.299 332.4 847.399 331 853.933 331C857.333 331 860.733 331.467 864.133 332.4C867.533 333.267 870.333 334.433 872.533 335.9L869.433 341.6C865.099 338.6 859.933 337.1 853.933 337.1C849.399 337.1 845.966 337.9 843.633 339.5C841.366 341.1 840.233 343.2 840.233 345.8C840.233 347.8 840.866 349.4 842.133 350.6C843.466 351.8 845.099 352.7 847.033 353.3C848.966 353.833 851.633 354.4 855.033 355C859.233 355.8 862.599 356.6 865.133 357.4C867.666 358.2 869.833 359.567 871.633 361.5C873.433 363.433 874.333 366.1 874.333 369.5C874.333 374.1 872.399 377.767 868.533 380.5C864.733 383.167 859.433 384.5 852.633 384.5ZM887.459 331.4H894.559V384H887.459V331.4ZM891.059 319.9C889.592 319.9 888.359 319.4 887.359 318.4C886.359 317.4 885.859 316.2 885.859 314.8C885.859 313.467 886.359 312.3 887.359 311.3C888.359 310.3 889.592 309.8 891.059 309.8C892.525 309.8 893.759 310.3 894.759 311.3C895.759 312.233 896.259 313.367 896.259 314.7C896.259 316.167 895.759 317.4 894.759 318.4C893.759 319.4 892.525 319.9 891.059 319.9ZM914.314 309.8H921.414V384H914.314V309.8ZM685.7 494.6C680.5 494.6 675.5 493.767 670.7 492.1C665.967 490.433 662.3 488.233 659.7 485.5L662.6 479.8C665.133 482.333 668.5 484.4 672.7 486C676.9 487.533 681.233 488.3 685.7 488.3C691.967 488.3 696.667 487.167 699.8 484.9C702.933 482.567 704.5 479.567 704.5 475.9C704.5 473.1 703.633 470.867 701.9 469.2C700.233 467.533 698.167 466.267 695.7 465.4C693.233 464.467 689.8 463.467 685.4 462.4C680.133 461.067 675.933 459.8 672.8 458.6C669.667 457.333 666.967 455.433 664.7 452.9C662.5 450.367 661.4 446.933 661.4 442.6C661.4 439.067 662.333 435.867 664.2 433C666.067 430.067 668.933 427.733 672.8 426C676.667 424.267 681.467 423.4 687.2 423.4C691.2 423.4 695.1 423.967 698.9 425.1C702.767 426.167 706.1 427.667 708.9 429.6L706.4 435.5C703.467 433.567 700.333 432.133 697 431.2C693.667 430.2 690.4 429.7 687.2 429.7C681.067 429.7 676.433 430.9 673.3 433.3C670.233 435.633 668.7 438.667 668.7 442.4C668.7 445.2 669.533 447.467 671.2 449.2C672.933 450.867 675.067 452.167 677.6 453.1C680.2 453.967 683.667 454.933 688 456C693.133 457.267 697.267 458.533 700.4 459.8C703.6 461 706.3 462.867 708.5 465.4C710.7 467.867 711.8 471.233 711.8 475.5C711.8 479.033 710.833 482.267 708.9 485.2C707.033 488.067 704.133 490.367 700.2 492.1C696.267 493.767 691.433 494.6 685.7 494.6ZM772.223 469.9H728.223C728.623 475.367 730.723 479.8 734.523 483.2C738.323 486.533 743.123 488.2 748.923 488.2C752.19 488.2 755.19 487.633 757.923 486.5C760.657 485.3 763.023 483.567 765.023 481.3L769.023 485.9C766.69 488.7 763.757 490.833 760.223 492.3C756.757 493.767 752.923 494.5 748.723 494.5C743.323 494.5 738.523 493.367 734.323 491.1C730.19 488.767 726.957 485.567 724.623 481.5C722.29 477.433 721.123 472.833 721.123 467.7C721.123 462.567 722.223 457.967 724.423 453.9C726.69 449.833 729.757 446.667 733.623 444.4C737.557 442.133 741.957 441 746.823 441C751.69 441 756.057 442.133 759.923 444.4C763.79 446.667 766.823 449.833 769.023 453.9C771.223 457.9 772.323 462.5 772.323 467.7L772.223 469.9ZM746.823 447.1C741.757 447.1 737.49 448.733 734.023 452C730.623 455.2 728.69 459.4 728.223 464.6H765.523C765.057 459.4 763.09 455.2 759.623 452C756.223 448.733 751.957 447.1 746.823 447.1ZM835.475 441.4V487.6C835.475 496.533 833.275 503.133 828.875 507.4C824.542 511.733 817.975 513.9 809.175 513.9C804.308 513.9 799.675 513.167 795.275 511.7C790.942 510.3 787.408 508.333 784.675 505.8L788.275 500.4C790.808 502.667 793.875 504.433 797.475 505.7C801.142 506.967 804.975 507.6 808.975 507.6C815.642 507.6 820.542 506.033 823.675 502.9C826.808 499.833 828.375 495.033 828.375 488.5V481.8C826.175 485.133 823.275 487.667 819.675 489.4C816.142 491.133 812.208 492 807.875 492C802.942 492 798.442 490.933 794.375 488.8C790.375 486.6 787.208 483.567 784.875 479.7C782.608 475.767 781.475 471.333 781.475 466.4C781.475 461.467 782.608 457.067 784.875 453.2C787.208 449.333 790.375 446.333 794.375 444.2C798.375 442.067 802.875 441 807.875 441C812.342 441 816.375 441.9 819.975 443.7C823.575 445.5 826.475 448.1 828.675 451.5V441.4H835.475ZM808.575 485.7C812.375 485.7 815.808 484.9 818.875 483.3C821.942 481.633 824.308 479.333 825.975 476.4C827.708 473.467 828.575 470.133 828.575 466.4C828.575 462.667 827.708 459.367 825.975 456.5C824.308 453.567 821.942 451.3 818.875 449.7C815.875 448.033 812.442 447.2 808.575 447.2C804.775 447.2 801.342 448 798.275 449.6C795.275 451.2 792.908 453.467 791.175 456.4C789.508 459.333 788.675 462.667 788.675 466.4C788.675 470.133 789.508 473.467 791.175 476.4C792.908 479.333 795.275 481.633 798.275 483.3C801.342 484.9 804.775 485.7 808.575 485.7ZM902.73 441.4V494H895.93V484.4C894.063 487.6 891.496 490.1 888.23 491.9C884.963 493.633 881.23 494.5 877.03 494.5C870.163 494.5 864.73 492.6 860.73 488.8C856.796 484.933 854.83 479.3 854.83 471.9V441.4H861.93V471.2C861.93 476.733 863.296 480.933 866.03 483.8C868.763 486.667 872.663 488.1 877.73 488.1C883.263 488.1 887.63 486.433 890.83 483.1C894.03 479.7 895.63 475 895.63 469V441.4H902.73ZM929.415 451.7C931.082 448.167 933.548 445.5 936.815 443.7C940.148 441.9 944.248 441 949.115 441V447.9L947.415 447.8C941.882 447.8 937.548 449.5 934.415 452.9C931.282 456.3 929.715 461.067 929.715 467.2V494H922.615V441.4H929.415V451.7ZM982.982 494.5C977.915 494.5 973.349 493.367 969.282 491.1C965.215 488.767 962.015 485.567 959.682 481.5C957.349 477.433 956.182 472.833 956.182 467.7C956.182 462.567 957.349 457.967 959.682 453.9C962.015 449.833 965.215 446.667 969.282 444.4C973.349 442.133 977.915 441 982.982 441C988.049 441 992.615 442.133 996.682 444.4C1000.75 446.667 1003.92 449.833 1006.18 453.9C1008.52 457.967 1009.68 462.567 1009.68 467.7C1009.68 472.833 1008.52 477.433 1006.18 481.5C1003.92 485.567 1000.75 488.767 996.682 491.1C992.615 493.367 988.049 494.5 982.982 494.5ZM982.982 488.2C986.715 488.2 990.049 487.367 992.982 485.7C995.982 483.967 998.315 481.533 999.982 478.4C1001.65 475.267 1002.48 471.7 1002.48 467.7C1002.48 463.7 1001.65 460.133 999.982 457C998.315 453.867 995.982 451.467 992.982 449.8C990.049 448.067 986.715 447.2 982.982 447.2C979.249 447.2 975.882 448.067 972.882 449.8C969.949 451.467 967.615 453.867 965.882 457C964.215 460.133 963.382 463.7 963.382 467.7C963.382 471.7 964.215 475.267 965.882 478.4C967.615 481.533 969.949 483.967 972.882 485.7C975.882 487.367 979.249 488.2 982.982 488.2ZM1038.28 494.5C1034.01 494.5 1029.91 493.9 1025.98 492.7C1022.11 491.433 1019.08 489.867 1016.88 488L1020.08 482.4C1022.28 484.133 1025.04 485.567 1028.38 486.7C1031.71 487.767 1035.18 488.3 1038.78 488.3C1043.58 488.3 1047.11 487.567 1049.38 486.1C1051.71 484.567 1052.88 482.433 1052.88 479.7C1052.88 477.767 1052.24 476.267 1050.98 475.2C1049.71 474.067 1048.11 473.233 1046.18 472.7C1044.24 472.1 1041.68 471.533 1038.48 471C1034.21 470.2 1030.78 469.4 1028.18 468.6C1025.58 467.733 1023.34 466.3 1021.48 464.3C1019.68 462.3 1018.78 459.533 1018.78 456C1018.78 451.6 1020.61 448 1024.28 445.2C1027.94 442.4 1033.04 441 1039.58 441C1042.98 441 1046.38 441.467 1049.78 442.4C1053.18 443.267 1055.98 444.433 1058.18 445.9L1055.08 451.6C1050.74 448.6 1045.58 447.1 1039.58 447.1C1035.04 447.1 1031.61 447.9 1029.28 449.5C1027.01 451.1 1025.88 453.2 1025.88 455.8C1025.88 457.8 1026.51 459.4 1027.78 460.6C1029.11 461.8 1030.74 462.7 1032.68 463.3C1034.61 463.833 1037.28 464.4 1040.68 465C1044.88 465.8 1048.24 466.6 1050.78 467.4C1053.31 468.2 1055.48 469.567 1057.28 471.5C1059.08 473.433 1059.98 476.1 1059.98 479.5C1059.98 484.1 1058.04 487.767 1054.18 490.5C1050.38 493.167 1045.08 494.5 1038.28 494.5Z" fill="#0096C7"/>
<path d="M0 10.0001L1092.5 10.0001" stroke="#00B4D8" stroke-width="20"/>
<line x1="8.74228e-07" y1="617" x2="1092" y2="617" stroke="#00B4D8" stroke-width="20"/>
</svg>
