<svg width="581" height="220" viewBox="0 0 581 220" fill="none" xmlns="http://www.w3.org/2000/svg">
<path d="M117.7 219.8C95.5 219.8 75.5 215.2 57.7 206C39.9 196.6 25.9 183.6 15.7 167C5.7 150.2 0.7 131.2 0.7 110C0.7 88.8 5.7 69.9 15.7 53.3C25.9 36.5 39.9 23.5 57.7 14.3C75.5 4.89999 95.5 0.199994 117.7 0.199994C138.1 0.199994 156.3 3.8 172.3 11C188.3 18.2 201.5 28.6 211.9 42.2L167.2 82.1C154.2 65.7 138.9 57.5 121.3 57.5C106.5 57.5 94.6 62.3 85.6 71.9C76.6 81.3 72.1 94 72.1 110C72.1 126 76.6 138.8 85.6 148.4C94.6 157.8 106.5 162.5 121.3 162.5C138.9 162.5 154.2 154.3 167.2 137.9L211.9 177.8C201.5 191.4 188.3 201.8 172.3 209C156.3 216.2 138.1 219.8 117.7 219.8ZM370.342 105.2C382.742 109.8 392.342 116.5 399.142 125.3C405.942 134.1 409.342 144.7 409.342 157.1C409.342 175.5 401.742 189.8 386.542 200C371.342 210 349.342 215 320.542 215H202.342V4.99999H314.542C342.542 4.99999 363.642 9.99999 377.842 20C392.242 30 399.442 43.3 399.442 59.9C399.442 69.7 396.942 78.5 391.942 86.3C387.142 94.1 379.942 100.4 370.342 105.2ZM271.942 54.5V85.7H304.942C320.342 85.7 328.042 80.5 328.042 70.1C328.042 59.7 320.342 54.5 304.942 54.5H271.942ZM314.542 165.5C330.142 165.5 337.942 160 337.942 149C337.942 138 330.142 132.5 314.542 132.5H271.942V165.5H314.542ZM482.673 219.8C465.273 219.8 448.273 217.9 431.673 214.1C415.273 210.1 401.773 204.8 391.173 198.2L413.973 146.6C423.973 152.4 435.173 157.1 447.573 160.7C459.973 164.1 471.873 165.8 483.273 165.8C493.073 165.8 500.073 164.9 504.273 163.1C508.473 161.1 510.573 158.2 510.573 154.4C510.573 150 507.773 146.7 502.173 144.5C496.773 142.3 487.773 139.9 475.173 137.3C458.973 133.9 445.473 130.3 434.673 126.5C423.873 122.5 414.473 116.1 406.473 107.3C398.473 98.3 394.473 86.2 394.473 71C394.473 57.8 398.173 45.8 405.573 35C412.973 24.2 423.973 15.7 438.573 9.49998C453.373 3.29999 471.273 0.199994 492.273 0.199994C506.673 0.199994 520.773 1.79999 534.573 4.99999C548.573 7.99998 560.873 12.5 571.473 18.5L550.173 69.8C529.573 59.4 510.073 54.2 491.673 54.2C473.473 54.2 464.373 58.6 464.373 67.4C464.373 71.6 467.073 74.8 472.473 77C477.873 79 486.773 81.2 499.173 83.6C515.173 86.6 528.673 90.1 539.673 94.1C550.673 97.9 560.173 104.2 568.173 113C576.373 121.8 580.473 133.8 580.473 149C580.473 162.2 576.773 174.2 569.373 185C561.973 195.6 550.873 204.1 536.073 210.5C521.473 216.7 503.673 219.8 482.673 219.8Z" fill="#0096C7"/>
</svg>
