<svg id="Camada_1" data-name="Camada 1" xmlns="http://www.w3.org/2000/svg" viewBox="0 0 826.43 223.52"><defs><style>.cls-1{fill:#0197c8;}.cls-2,.cls-4{fill:#676767;}.cls-3{fill:none;stroke:#676767;stroke-width:3px;}.cls-4{fill-rule:evenodd;}</style></defs><title>cbs-logo-full</title><path class="cls-1" d="M128.1,256.32q-33.3,0-60-13.8a106.76,106.76,0,0,1-42-39q-15-25.2-15-57t15-56.7a104,104,0,0,1,42-39q26.7-14.1,60-14.1,30.6,0,54.6,10.8a101.34,101.34,0,0,1,39.6,31.2l-44.7,39.9Q158.1,94,131.7,94q-22.2,0-35.7,14.4-13.5,14.1-13.5,38.1T96,184.92Q109.5,199,131.7,199q26.4,0,45.9-24.6l44.7,39.9a101.34,101.34,0,0,1-39.6,31.2Q158.7,256.32,128.1,256.32Zm252.64-114.6q18.6,6.9,28.8,20.1t10.2,31.8q0,27.6-22.8,42.9-22.8,15-66,15H212.74v-210h112.2q42,0,63.3,15,21.6,15,21.6,39.9a47.87,47.87,0,0,1-7.5,26.4Q395.14,134.52,380.74,141.72ZM282.34,91v31.2h33q23.1,0,23.1-15.6T315.34,91Zm42.6,111q23.4,0,23.4-16.5T324.94,169h-42.6v33Zm168.13,54.3a227.82,227.82,0,0,1-51-5.7q-24.6-6-40.5-15.9l22.8-51.6a150.1,150.1,0,0,0,33.6,14.1,134.92,134.92,0,0,0,35.7,5.1q14.7,0,21-2.7,6.3-3,6.3-8.7,0-6.6-8.4-9.9-8.1-3.3-27-7.2a327,327,0,0,1-40.5-10.8,71,71,0,0,1-28.2-19.2q-12-13.5-12-36.3a62.27,62.27,0,0,1,11.1-36q11.1-16.2,33-25.5,22.2-9.3,53.7-9.3a186.64,186.64,0,0,1,42.3,4.8A129.65,129.65,0,0,1,581.87,55l-21.3,51.3q-30.9-15.6-58.5-15.6-27.3,0-27.3,13.2,0,6.3,8.1,9.6,8.1,3,26.7,6.6,24,4.5,40.5,10.5a68,68,0,0,1,28.5,18.9q12.3,13.2,12.3,36a62.27,62.27,0,0,1-11.1,36q-11.1,15.9-33.3,25.5Q524.57,256.32,493.07,256.32Z" transform="translate(-11.1 -32.8)"/><path class="cls-2" d="M663.25,84.13a31.5,31.5,0,0,1-6.12,2.81,23.6,23.6,0,0,1-8.06,1.15,26.94,26.94,0,0,1-10.59-2,25.3,25.3,0,0,1-8.13-5.62,26.38,26.38,0,0,1-5.26-8.21,28.61,28.61,0,0,1,.15-20.37,25.94,25.94,0,0,1,31.39-15A28.91,28.91,0,0,1,663,39.71L661.52,43a26.83,26.83,0,0,0-5.68-2.67,21.31,21.31,0,0,0-15.27.72,22.21,22.21,0,0,0-7.13,4.9,22.78,22.78,0,0,0-4.75,7.27,23.39,23.39,0,0,0-1.73,9,23.64,23.64,0,0,0,2.74,11.31,21.43,21.43,0,0,0,7.7,8.2,24,24,0,0,0,18.58,2A25.87,25.87,0,0,0,661.6,81ZM674.59,32.8H678V87.52h-3.38Zm25,55.51a8.28,8.28,0,0,1-8.85-8.43V59.36h3.38V78.88a7.21,7.21,0,0,0,1.73,4.53,6.78,6.78,0,0,0,4.9,2,9.71,9.71,0,0,0,5.11-1.44A11,11,0,0,0,709.69,80a10.75,10.75,0,0,0,1.52-5.69v-15h3.38V87.52h-3l-.22-6a11.62,11.62,0,0,1-4.75,4.9A13.81,13.81,0,0,1,699.61,88.31Zm43.55-.22a14.85,14.85,0,0,1-7.2-1.8,14.61,14.61,0,0,1-5.18-4.75v6h-3.39V32.8h3.39V65A12.51,12.51,0,0,1,736,60.3a16,16,0,0,1,7.49-1.8,13.78,13.78,0,0,1,7.2,1.94,13.55,13.55,0,0,1,5.11,5.19,14.63,14.63,0,0,1,1.95,7.56,15.52,15.52,0,0,1-2,8.13,13.37,13.37,0,0,1-5.33,5A15.36,15.36,0,0,1,743.16,88.09Zm-.57-3a11.27,11.27,0,0,0,8.56-3.31,12.12,12.12,0,0,0,3.17-8.64,11.76,11.76,0,0,0-1.51-5.91,10.85,10.85,0,0,0-4.1-4.32,11.16,11.16,0,0,0-6.12-1.65A12.07,12.07,0,0,0,734.81,64a11.27,11.27,0,0,0-4,6.7v4.39a10.62,10.62,0,0,0,1.87,5,11.73,11.73,0,0,0,9.94,5.11Zm37.47,3a15.37,15.37,0,0,1-7.77-1.94A14.39,14.39,0,0,1,767,80.89a15.3,15.3,0,0,1-1.87-7.56,14.42,14.42,0,0,1,2-7.49,15.51,15.51,0,0,1,5.4-5.4,14.93,14.93,0,0,1,7.64-2,12.34,12.34,0,0,1,8.42,3,16.51,16.51,0,0,1,5,7.7l-24,9.29a12.27,12.27,0,0,0,4.1,4.9,12.11,12.11,0,0,0,10.95,1A14.07,14.07,0,0,0,788.34,82l1.73,2.45a17.3,17.3,0,0,1-4.68,2.59A14.41,14.41,0,0,1,780.06,88.09ZM768.4,73.19a12.32,12.32,0,0,0,.29,2.66l20.73-8.13a13,13,0,0,0-3.67-4.47,8.93,8.93,0,0,0-5.83-1.94,11,11,0,0,0-5.83,1.58,12.24,12.24,0,0,0-4.18,4.25A12,12,0,0,0,768.4,73.19ZM637.84,111.4q7.41,0,11.44,3.09t4.11,9.87a14.09,14.09,0,0,1-1.95,7.41,11.26,11.26,0,0,1-5.76,4.75,15.83,15.83,0,0,1,7.35,4.54,11.07,11.07,0,0,1,3,7.85,12.27,12.27,0,0,1-2.3,7.63,14.12,14.12,0,0,1-6,4.54,21.3,21.3,0,0,1-7.85,1.44H626.53V111.4Zm1.65,23.9q5.47,0,7.85-3a11.15,11.15,0,0,0,2.45-7.35c0-3.64-1.08-6.26-3.24-7.84s-5-2.38-8.57-2.38h-7.92V135.3Zm.22,24A17.9,17.9,0,0,0,646,158.2a10.47,10.47,0,0,0,4.61-3.46,9.23,9.23,0,0,0,1.73-5.69,8.79,8.79,0,0,0-1.94-6,10.94,10.94,0,0,0-4.9-3.32,17.47,17.47,0,0,0-6-1.08h-9.43v20.6Zm30.52-24.92.28,6.7a11.52,11.52,0,0,1,3-4,14.2,14.2,0,0,1,4.32-2.59,12.21,12.21,0,0,1,4.53-.94l-.14,3.31a12.18,12.18,0,0,0-5.9,1.44,11.65,11.65,0,0,0-4.18,3.89,9.85,9.85,0,0,0-1.51,5.4v14.91h-3.39V134.36Zm33,28.73a15.15,15.15,0,0,1-7.35-1.8,14.07,14.07,0,0,1-5.18-5.18,15.39,15.39,0,0,1-1.87-7.71,15.12,15.12,0,0,1,2-8,13.07,13.07,0,0,1,5.47-5.11,16.76,16.76,0,0,1,7.85-1.8,12.14,12.14,0,0,1,6.63,2,12.52,12.52,0,0,1,4.82,5l.36-6.12h3v28.16h-3.39v-6a14.61,14.61,0,0,1-4.89,4.54A14.17,14.17,0,0,1,703.2,163.09Zm.72-2.88a12.27,12.27,0,0,0,5.68-1.29,11.21,11.21,0,0,0,4.18-3.75,11,11,0,0,0,1.8-5.47v-4a10.92,10.92,0,0,0-2.3-4.75,12,12,0,0,0-4.11-3.32,11.82,11.82,0,0,0-5.33-1.22,11.6,11.6,0,0,0-5.83,1.51,11,11,0,0,0-4.25,4.11,12.05,12.05,0,0,0-1.58,6.26,11.93,11.93,0,0,0,1.58,6.05,12.81,12.81,0,0,0,4.25,4.32A11.66,11.66,0,0,0,703.92,160.21Zm34.46,2.88a16.69,16.69,0,0,1-5.11-.86,9.58,9.58,0,0,1-4.32-2.95l1.58-2.24a11.5,11.5,0,0,0,3.38,2.45,10.63,10.63,0,0,0,4.25.87,8.87,8.87,0,0,0,4.47-1.16,4.24,4.24,0,0,0,2-4,4,4,0,0,0-1.15-3.09,7.75,7.75,0,0,0-2.81-1.73,34.62,34.62,0,0,0-3.53-1.3,14.86,14.86,0,0,1-5.11-2.73,6.25,6.25,0,0,1-1.94-4.9,7,7,0,0,1,2.37-5.54,9,9,0,0,1,6.2-2.16,13.83,13.83,0,0,1,4.39.72,10.36,10.36,0,0,1,4,2.44l-1.51,2.38a5.69,5.69,0,0,0-3.1-2.16,14.12,14.12,0,0,0-3.31-.65,7.55,7.55,0,0,0-3.82,1.15,3.65,3.65,0,0,0-1.87,3.39,4,4,0,0,0,.94,2.73,7,7,0,0,0,2.37,1.66c1,.43,2,.84,3.1,1.22a23.8,23.8,0,0,1,3.89,1.59,7.86,7.86,0,0,1,3,2.37,5.8,5.8,0,0,1,1.23,3.89,8.39,8.39,0,0,1-2.45,6.19C744,162.28,741.59,163.09,738.38,163.09Zm19.88-28.73h3.39v28.16h-3.39ZM757.54,124a2.06,2.06,0,0,1,.79-1.66,2.54,2.54,0,0,1,1.73-.72,2.36,2.36,0,0,1,1.73.72,2.12,2.12,0,0,1,.72,1.66,2.44,2.44,0,0,1-.72,1.8,2.5,2.5,0,0,1-1.73.64,2.54,2.54,0,0,1-1.73-.72A2.27,2.27,0,0,1,757.54,124Zm16.89-16.2h3.39v54.72h-3.39ZM652.09,192.16a34.63,34.63,0,0,0-5.47-2,23.4,23.4,0,0,0-6.48-.94,12.17,12.17,0,0,0-8.06,2.52,7.91,7.91,0,0,0-3,6.34,7,7,0,0,0,1.73,4.82,14.89,14.89,0,0,0,4.54,3.24q2.8,1.31,6,2.52c1.68.63,3.34,1.32,5,2.09a21,21,0,0,1,4.54,2.81,11.55,11.55,0,0,1,3.16,4.1,13.42,13.42,0,0,1,1.23,6.05,14.21,14.21,0,0,1-2,7.56,13.59,13.59,0,0,1-5.61,5,18.47,18.47,0,0,1-8.36,1.8,24.71,24.71,0,0,1-7-.93,33.53,33.53,0,0,1-5.47-2.16c-1.54-.87-2.76-1.59-3.67-2.16l1.65-2.88a31,31,0,0,0,3.82,2.3,29.35,29.35,0,0,0,5,1.94,18.5,18.5,0,0,0,5.32.8,15.06,15.06,0,0,0,6-1.23,11.38,11.38,0,0,0,4.82-3.67,10,10,0,0,0,2-6.34,9.13,9.13,0,0,0-1.8-5.9,13.62,13.62,0,0,0-4.61-3.74,51.78,51.78,0,0,0-6-2.6q-3.3-1.22-6.48-2.73a16.55,16.55,0,0,1-5.25-4,9.64,9.64,0,0,1-2-6.34,11.14,11.14,0,0,1,1.87-6.41,12.56,12.56,0,0,1,5-4.25,17.34,17.34,0,0,1,7.35-1.65A29.53,29.53,0,0,1,647,187a29.2,29.2,0,0,1,6.48,2.38Zm26.79,45.93a15.41,15.41,0,0,1-7.78-1.94,14.36,14.36,0,0,1-5.32-5.26,15.3,15.3,0,0,1-1.88-7.56,14.43,14.43,0,0,1,2-7.49,15.35,15.35,0,0,1,5.4-5.4,14.9,14.9,0,0,1,7.63-2,12.37,12.37,0,0,1,8.43,2.95,16.41,16.41,0,0,1,5,7.7l-24,9.29a12.27,12.27,0,0,0,4.1,4.9,12.09,12.09,0,0,0,10.94,1,14.13,14.13,0,0,0,3.82-2.24l1.73,2.45a17.6,17.6,0,0,1-4.68,2.59A14.45,14.45,0,0,1,678.88,238.09Zm-11.66-14.9a12.32,12.32,0,0,0,.28,2.66l20.74-8.13a13.11,13.11,0,0,0-3.67-4.47,9,9,0,0,0-5.83-1.94,11,11,0,0,0-5.84,1.58,12.21,12.21,0,0,0-4.17,4.25A12,12,0,0,0,667.22,223.19Zm65.44,15.12a8.28,8.28,0,0,1-8.85-8.43V209.36h3.38v19.52a7.21,7.21,0,0,0,1.73,4.53,6.78,6.78,0,0,0,4.9,2,9.71,9.71,0,0,0,5.11-1.44,11,11,0,0,0,3.81-3.89,10.84,10.84,0,0,0,1.52-5.69v-15h3.38v28.16h-3l-.22-6a11.62,11.62,0,0,1-4.75,4.9A13.81,13.81,0,0,1,732.66,238.31Zm30.73-28.95.29,6.7a11.62,11.62,0,0,1,3-4,14.44,14.44,0,0,1,4.32-2.59,12.3,12.3,0,0,1,4.54-.94l-.14,3.31a12.25,12.25,0,0,0-5.91,1.44,11.54,11.54,0,0,0-4.17,3.89,9.86,9.86,0,0,0-1.52,5.4v14.91h-3.38V209.36Zm17.8,13.9a14.4,14.4,0,0,1,7.34-12.82,15.08,15.08,0,0,1,7.71-2,14.77,14.77,0,0,1,7.7,2,14.28,14.28,0,0,1,5.33,5.33,14.91,14.91,0,0,1-5.4,20.38,15.24,15.24,0,0,1-7.7,1.94,15.5,15.5,0,0,1-7.64-1.87,15,15,0,0,1-5.4-5.26A15.21,15.21,0,0,1,781.19,223.26Zm3.38.07a12.27,12.27,0,0,0,1.52,6,12.13,12.13,0,0,0,4.17,4.25,11.42,11.42,0,0,0,5.91,1.58,11,11,0,0,0,5.83-1.58,11.41,11.41,0,0,0,4.17-4.25,11.81,11.81,0,0,0,1.59-6,11.39,11.39,0,0,0-1.59-6A11.17,11.17,0,0,0,802,213a10.55,10.55,0,0,0-5.83-1.66,10.78,10.78,0,0,0-6,1.73,12.25,12.25,0,0,0-5.62,10.22Zm43.32,14.76a16.75,16.75,0,0,1-5.12-.86,9.69,9.69,0,0,1-4.32-2.95L820,232a11.5,11.5,0,0,0,3.38,2.45,10.63,10.63,0,0,0,4.25.87,8.8,8.8,0,0,0,4.46-1.16,4.23,4.23,0,0,0,2-4,4,4,0,0,0-1.15-3.09,7.75,7.75,0,0,0-2.81-1.73,34.62,34.62,0,0,0-3.53-1.3,14.77,14.77,0,0,1-5.11-2.73,6.21,6.21,0,0,1-1.94-4.9,7,7,0,0,1,2.37-5.54,9,9,0,0,1,6.19-2.16,13.84,13.84,0,0,1,4.4.72,10.43,10.43,0,0,1,4,2.44l-1.51,2.38a5.69,5.69,0,0,0-3.1-2.16,14.12,14.12,0,0,0-3.31-.65,7.55,7.55,0,0,0-3.82,1.15A3.63,3.63,0,0,0,823,216a4,4,0,0,0,.94,2.73,7,7,0,0,0,2.37,1.66c1,.43,2,.84,3.1,1.22a23.8,23.8,0,0,1,3.89,1.59,7.93,7.93,0,0,1,3,2.37,5.79,5.79,0,0,1,1.22,3.89,8.38,8.38,0,0,1-2.44,6.19C833.5,237.28,831.1,238.09,827.89,238.09Z" transform="translate(-11.1 -32.8)"/><circle class="cls-3" cx="695.3" cy="190.72" r="12.5"/><path class="cls-4" d="M692.4,237.52a14,14,0,0,0,28,0h-3a11,11,0,0,1-22,0Z" transform="translate(-11.1 -32.8)"/><path class="cls-4" d="M730,207.11a8.77,8.77,0,1,0-15.19,8.77l2.6-1.5a5.77,5.77,0,1,1,10-5.77Z" transform="translate(-11.1 -32.8)"/></svg>